PathFileType   4   (X/Y/Z)
DataRate	CameraRate	NumFrames	NumMarkers	Units	OrigDataRate	OrigDataStartFrame	OrigNumFrames
120.0	120.0	7	37	mm	120.0	40	156
Frame#	Time	midhip	hip_r	hip_l	knee_r	knee_l	ankle_r	ankle_l	midasis	asis_r	asis_l	psis_r	psis_l	epicondLat_r	epicondLat_l	epicondMed_r	epicondMed_l	malleolusLat_r	malleolusLat_l	malleolusMedv_r	malleolusMedv_l	neck	subclavicle_r	subclavicle_l	sternalnotch	xyphoidprocess	thighwand_r	thighwand_l	upperleg1_r	upperleg1_l	upperleg2_r	upperleg2_l	shankwand_r	shankwand_l	lowerleg1_r	lowerleg1_l	toe_r	toe_l
 	 	X1	Y1	Z1	X2	Y2	Z2	X3	Y3	Z3	X4	Y4	Z4	X5	Y5	Z5	X6	Y6	Z6	X7	Y7	Z7	X8	Y8	Z8	X9	Y9	Z9	X10	Y10	Z10	X11	Y11	Z11	X12	Y12	Z12	X13	Y13	Z13	X14	Y14	Z14	X15	Y15	Z15	X16	Y16	Z16	X17	Y17	Z17	X18	Y18	Z18	X19	Y19	Z19	X20	Y20	Z20	X21	Y21	Z21	X22	Y22	Z22	X23	Y23	Z23	X24	Y24	Z24	X25	Y25	Z25	X26	Y26	Z26	X27	Y27	Z27	X28	Y28	Z28	X29	Y29	Z29	X30	Y30	Z30	X31	Y31	Z31	X32	Y32	Z32	X33	Y33	Z33	X34	Y34	Z34	X35	Y35	Z35	X36	Y36	Z36	X37	Y37	Z37

	40	0.59167	1609.978	819.508	-292.959	1603.892	803.004	-215.954	1588.028	803.169	-367.252	1770.649	455.444	-196.474	1558.893	425.179	-339.549	1745.498	85.352	-196.075	1479.441	68.878	-305.359	1690.122	871.897	-298.344	1698.611	871.873	-180.002	1681.633	871.920	-416.687	1501.097	941.818	-249.627	1494.054	939.447	-303.587	1774.798	460.664	-138.859	1562.196	420.693	-397.281	1767.890	449.433	-252.824	1578.357	437.417	-277.992	1732.144	86.300	-158.382	1465.828	68.305	-342.967	1757.028	92.873	-229.228	1492.212	76.656	-281.002	1583.074	1373.819	-295.269	1712.178	1310.701	-249.879	1706.996	1304.865	-355.576	1706.013	1304.394	-301.988	1745.112	1234.664	-303.731	1853.972	642.412	-224.082	1605.483	543.164	-494.205	1777.473	662.297	-164.095	1552.316	601.481	-437.132	1803.203	578.250	-162.287	1555.587	514.338	-418.302	1730.753	166.450	-87.722	1596.827	173.376	-309.607	1733.498	173.539	-130.347	1555.691	179.852	-319.101	1839.238	59.980	-167.555	1579.648	41.443	-345.633
	41	0.60000	1616.544	819.513	-292.655	1609.662	802.352	-215.838	1593.558	802.497	-367.111	1777.191	455.258	-197.531	1560.810	424.949	-339.367	1765.293	83.900	-195.407	1479.625	69.120	-305.066	1695.816	871.158	-298.380	1704.489	871.153	-180.112	1687.144	871.162	-416.647	1506.965	941.209	-249.444	1499.973	938.813	-303.404	1781.445	460.350	-139.912	1564.119	420.420	-397.095	1774.532	448.162	-253.866	1578.497	435.865	-278.587	1751.845	84.547	-157.741	1465.878	68.636	-342.627	1775.672	91.791	-228.847	1492.536	76.754	-280.633	1589.729	1373.206	-295.077	1717.834	1309.636	-249.542	1712.877	1303.416	-355.423	1712.050	1303.563	-301.689	1750.406	1233.174	-303.113	1859.699	641.903	-224.769	1608.634	542.568	-493.907	1783.534	661.153	-165.599	1556.026	601.025	-437.010	1809.244	577.312	-163.450	1557.856	513.946	-418.662	1747.456	165.152	-87.428	1597.666	173.001	-309.670	1749.371	172.050	-130.285	1556.613	178.153	-318.867	1859.750	61.721	-167.313	1579.661	41.506	-345.521
	42	0.60833	1622.483	818.823	-292.339	1615.490	801.655	-215.714	1599.123	801.768	-366.958	1783.421	454.953	-198.504	1562.812	424.690	-339.179	1784.765	82.814	-194.691	1479.780	69.377	-304.771	1701.554	870.369	-298.426	1710.427	870.393	-180.251	1692.682	870.345	-416.601	1512.917	940.529	-249.198	1505.968	938.125	-303.185	1787.833	459.949	-140.888	1566.140	420.117	-396.902	1779.539	447.539	-254.856	1581.062	435.191	-279.008	1771.199	83.151	-157.063	1465.905	68.987	-342.285	1795.720	91.041	-227.806	1492.811	76.691	-280.263	1596.611	1372.391	-294.850	1724.092	1309.167	-249.261	1718.976	1301.777	-355.541	1718.116	1302.738	-301.405	1756.374	1232.017	-302.272	1865.321	641.134	-225.558	1611.888	541.970	-493.583	1789.430	660.298	-165.922	1559.962	600.837	-436.838	1815.020	576.219	-164.182	1561.047	514.121	-418.866	1763.740	164.063	-87.108	1598.553	172.622	-309.716	1765.890	171.222	-129.828	1556.770	176.953	-318.742	1879.828	63.812	-166.914	1579.669	41.583	-345.418
	43	0.61667	1628.187	817.751	-292.018	1621.373	800.901	-215.584	1604.732	800.980	-366.798	1789.411	454.524	-199.389	1564.921	424.422	-338.987	1803.874	82.093	-193.942	1479.924	69.672	-304.474	1707.345	869.516	-298.473	1716.425	869.570	-180.398	1698.265	869.462	-416.549	1518.964	939.778	-248.887	1512.032	937.394	-302.914	1794.029	459.458	-141.784	1568.280	419.804	-396.705	1784.362	445.709	-252.622	1584.893	435.114	-278.916	1790.167	82.110	-156.364	1465.929	69.380	-341.945	1815.713	90.453	-226.681	1493.109	76.717	-279.988	1602.731	1371.460	-294.559	1730.359	1308.784	-249.086	1725.250	1301.234	-355.300	1724.207	1301.920	-301.135	1762.908	1231.679	-301.971	1870.850	640.131	-226.434	1615.259	541.399	-493.235	1795.227	659.722	-166.084	1563.446	600.825	-436.399	1820.923	574.985	-163.654	1564.555	514.449	-418.640	1779.597	163.160	-86.772	1599.471	172.237	-309.743	1782.265	170.357	-129.470	1557.302	177.647	-318.503	1899.443	66.230	-166.376	1579.678	41.663	-345.322
	44	0.62500	1633.943	816.471	-291.425	1627.308	800.076	-215.453	1610.389	800.142	-366.637	1795.228	453.973	-200.189	1567.148	424.164	-338.785	1822.550	81.727	-193.178	1480.077	70.020	-304.181	1713.197	868.587	-298.514	1722.488	868.655	-180.537	1703.907	868.519	-416.490	1525.113	938.959	-248.512	1518.155	936.633	-302.566	1800.091	458.873	-142.602	1570.551	419.497	-396.497	1788.808	446.574	-257.406	1587.571	435.394	-278.425	1808.694	81.417	-155.656	1465.966	69.833	-341.609	1834.025	90.362	-225.972	1493.322	77.008	-279.665	1608.143	1370.672	-294.128	1736.280	1307.842	-248.857	1731.555	1301.265	-354.642	1730.347	1301.089	-300.824	1769.294	1231.355	-302.078	1876.306	638.918	-227.377	1618.764	540.865	-492.870	1800.563	658.862	-166.525	1567.058	600.888	-436.337	1826.104	573.754	-165.931	1567.830	514.426	-418.359	1795.032	162.432	-86.425	1600.407	171.838	-309.762	1797.451	169.691	-129.304	1558.691	178.272	-318.207	1918.555	68.917	-165.723	1579.691	41.735	-345.236
	45	0.63333	1640.004	815.532	-291.406	1633.292	799.163	-215.334	1616.096	799.275	-366.487	1800.982	453.292	-200.913	1569.502	423.932	-338.562	1840.736	81.694	-192.409	1480.264	70.414	-303.892	1719.113	867.581	-298.542	1728.615	867.618	-180.659	1709.612	867.544	-416.425	1531.366	938.080	-248.069	1524.346	935.847	-302.121	1806.118	458.182	-143.349	1572.962	419.209	-396.265	1795.091	445.367	-259.162	1589.350	435.366	-277.746	1826.729	81.053	-154.947	1466.032	70.341	-341.274	1851.221	91.019	-225.386	1493.394	77.368	-279.225	1613.875	1369.913	-293.671	1742.084	1306.851	-248.334	1737.992	1300.610	-354.497	1736.518	1300.232	-300.439	1775.481	1230.565	-301.779	1881.713	637.515	-228.358	1622.412	540.362	-492.494	1805.583	657.223	-167.057	1571.483	600.316	-436.362	1831.756	572.241	-167.046	1571.074	514.221	-418.093	1810.052	161.874	-86.073	1601.364	171.411	-309.790	1811.776	169.458	-128.825	1559.178	176.673	-319.203	1937.124	71.795	-164.980	1579.705	41.793	-345.166
	46	0.64167	1646.669	815.106	-291.585	1639.353	798.165	-215.221	1621.869	798.397	-366.340	1806.713	452.485	-201.560	1571.983	423.734	-338.308	1858.397	81.958	-191.643	1480.508	70.824	-303.609	1725.110	866.518	-298.548	1734.830	866.466	-180.745	1715.390	866.570	-416.351	1537.707	937.148	-247.557	1530.601	935.041	-301.574	1812.142	457.387	-144.023	1575.509	418.948	-396.003	1800.030	443.717	-260.212	1590.722	435.464	-276.611	1844.242	80.985	-154.244	1466.142	70.877	-340.940	1867.979	91.712	-224.777	1493.567	77.618	-278.978	1620.270	1369.025	-293.247	1748.225	1305.835	-247.711	1744.227	1299.567	-354.479	1742.697	1299.338	-299.987	1781.563	1229.484	-301.418	1887.095	635.939	-229.349	1626.195	539.877	-492.110	1811.162	655.474	-167.807	1575.989	599.374	-436.530	1837.205	570.308	-167.994	1574.258	513.582	-417.650	1824.654	161.479	-85.724	1602.354	170.950	-309.849	1825.721	169.560	-128.581	1559.215	175.040	-319.918	1955.103	74.787	-164.179	1579.710	41.836	-345.122
